<svg version="1.1" id="Layer_1" xmlns="http://www.w3.org/2000/svg" xmlns:xlink="http://www.w3.org/1999/xlink" x="0px" y="0px"
	 width="100%" viewBox="0 0 1200 1200" enable-background="new 0 0 1200 1200" xml:space="preserve">
<path fill="#47704C" opacity="1.000000" stroke="none" 
	d="
M664.000000,1201.000000 
	C442.666656,1201.000000 221.833328,1201.000000 1.000000,1201.000000 
	C1.000000,801.000000 1.000000,401.000000 1.000000,1.000000 
	C401.000000,1.000000 801.000000,1.000000 1201.000000,1.000000 
	C1201.000000,401.000000 1201.000000,801.000000 1201.000000,1201.000000 
	C1022.166687,1201.000000 843.333313,1201.000000 664.000000,1201.000000 
M1079.017456,743.535217 
	C1078.057739,742.665161 1077.098022,741.795166 1076.011719,740.810303 
	C1064.466064,750.222473 1053.124146,759.453064 1041.799316,768.704712 
	C1028.802490,779.322388 1015.854004,789.999512 1002.823547,800.575745 
	C989.293701,811.557251 975.655334,822.405212 962.130188,833.392395 
	C948.975525,844.078613 935.950989,854.925049 922.784668,865.596680 
	C905.927246,879.259949 888.937256,892.759949 872.093567,906.440063 
	C857.021973,918.681030 842.127319,931.140137 827.052246,943.376831 
	C810.204590,957.052124 793.178894,970.508240 776.346436,984.202087 
	C759.241333,998.117615 742.352661,1012.299377 725.231934,1026.195435 
	C705.065552,1042.563599 684.692078,1058.676514 664.518311,1075.035767 
	C644.201050,1091.511353 624.049683,1108.191650 603.693481,1124.618652 
	C602.588501,1125.510376 599.634277,1125.682739 598.603455,1124.859375 
	C582.151978,1111.719971 565.857666,1098.383179 549.561340,1085.050049 
	C536.315674,1074.212891 523.165405,1063.258667 509.881042,1052.469360 
	C494.695984,1040.136353 479.370514,1027.976562 464.178589,1015.651978 
	C451.016937,1004.974609 437.988586,994.133057 424.843323,983.435303 
	C409.284851,970.773621 393.663696,958.188843 378.070679,945.569580 
	C368.356445,937.708130 358.639587,929.849854 348.931854,921.980347 
	C335.772552,911.312805 322.596527,900.665649 309.473053,889.954102 
	C297.741821,880.378723 286.119324,870.669800 274.361877,861.126892 
	C263.134735,852.014404 251.742020,843.105835 240.519196,833.987976 
	C227.236496,823.196655 214.100204,812.225159 200.821228,801.429199 
	C189.215698,791.993774 177.468262,782.733154 165.841995,773.323059 
	C152.563309,762.575623 139.349289,751.748291 125.613861,740.553650 
	C122.241814,744.814453 119.030098,748.872620 115.661720,753.128784 
	C277.558258,884.658875 439.118866,1015.916077 600.993408,1147.428223 
	C762.817322,1015.969360 924.388428,884.715820 1086.232544,753.240540 
	C1083.928833,750.091003 1081.722168,747.074219 1079.017456,743.535217 
M294.017334,320.480682 
	C300.042114,315.645844 306.077240,310.823853 312.089325,305.973236 
	C321.561005,298.331421 331.028351,290.684113 340.476776,283.013641 
	C350.310730,275.030182 360.114746,267.009888 369.941620,259.017639 
	C381.552124,249.574829 393.181091,240.154709 404.787292,230.706589 
	C416.524200,221.152069 428.225250,211.553497 439.975372,202.015320 
	C449.421448,194.347412 458.956818,186.789200 468.381042,179.094757 
	C480.111359,169.517502 491.703430,159.770248 503.472290,150.241028 
	C519.950623,136.898514 536.588501,123.753059 553.061951,110.404587 
	C568.018921,98.284988 582.854614,86.015701 597.723938,73.788269 
	C599.962097,71.947830 602.042175,71.947998 604.278564,73.790192 
	C615.454773,82.996696 626.657593,92.170990 637.853699,101.353317 
	C650.958679,112.101128 664.029358,122.891228 677.183350,133.578781 
	C690.707886,144.567429 704.312134,155.457947 717.886719,166.384933 
	C727.744568,174.320129 737.631775,182.219116 747.467896,190.181076 
	C758.594055,199.187210 769.687622,208.233841 780.777283,217.284912 
	C790.846985,225.503494 800.867920,233.781921 810.955811,241.977982 
	C820.398071,249.649521 829.941223,257.197235 839.365417,264.890717 
	C851.096191,274.467224 862.700867,284.198547 874.451355,293.750610 
	C887.715820,304.533447 901.085083,315.187317 914.402466,325.905121 
	C924.519348,334.047180 934.641357,342.183075 944.733276,350.356018 
	C953.938965,357.811157 963.130005,365.284912 972.286621,372.800262 
	C983.992249,382.407776 995.614258,392.117554 1007.351257,401.686310 
	C1019.072571,411.242401 1030.899170,420.669189 1042.665039,430.170593 
	C1053.771729,439.139771 1064.859497,448.132446 1076.361694,457.443634 
	C1079.836426,453.160156 1083.093140,449.145599 1086.358765,445.119904 
	C924.270569,313.379150 762.719055,182.074524 601.021057,50.650921 
	C439.123169,182.212280 277.567993,313.495117 115.563347,445.143219 
	C119.028168,449.322266 122.320518,453.293304 125.725403,457.400055 
	C135.898270,449.082245 145.563965,441.171082 155.238571,433.270782 
	C166.197372,424.321960 177.133362,415.344727 188.134903,406.448639 
	C203.346924,394.147888 218.618225,381.920471 233.850143,369.644287 
	C244.219406,361.287170 254.591293,352.932953 264.912903,344.517212 
	C274.479370,336.717133 283.980682,328.837158 294.017334,320.480682 
M477.519104,326.000122 
	C474.852692,326.000244 472.184540,326.062714 469.520142,325.989410 
	C459.333466,325.709167 450.799133,334.800659 450.835480,344.705200 
	C451.128937,424.702087 451.000061,504.700531 451.000061,584.698486 
	C451.000061,586.641602 451.000031,588.584717 451.000031,590.591736 
	C551.317322,590.591736 651.018921,590.591736 751.000000,590.591736 
	C751.000000,588.031555 751.000000,585.878296 751.000000,583.725037 
	C751.000000,504.393738 750.807617,425.061432 751.207520,345.732147 
	C751.267456,333.849518 741.524658,325.835876 731.006592,325.865906 
	C646.842712,326.106201 562.677917,326.000122 477.519104,326.000122 
M308.000061,724.500000 
	C308.000061,736.906677 308.000061,749.313354 308.000061,761.687744 
	C312.372955,761.687744 315.959229,761.687744 320.106812,761.687744 
	C320.106812,739.337891 320.106812,717.293823 320.106812,694.311218 
	C325.406464,694.580322 330.169250,694.313599 334.717834,695.176147 
	C341.038635,696.374695 346.264984,702.860840 345.875793,708.577820 
	C345.426361,715.180237 339.734253,721.845581 333.738342,722.155823 
	C328.636505,722.419739 324.423981,724.859680 322.865814,731.959900 
	C329.932098,730.946350 336.416626,730.562683 342.601715,728.996460 
	C351.147949,726.832153 356.525024,720.815674 357.867584,712.130798 
	C359.298889,702.871643 355.974762,695.106140 347.902802,690.028442 
	C335.097076,681.972900 321.590729,684.940735 308.000061,687.382263 
	C308.000061,699.870728 308.000061,711.685364 308.000061,724.500000 
M450.194427,722.585754 
	C446.769379,704.706360 426.358612,703.987549 412.338470,711.334534 
	C413.133179,713.704956 413.936981,716.102478 414.774902,718.601746 
	C418.286224,717.749634 421.411804,716.954102 424.555023,716.235840 
	C432.034271,714.526672 438.850739,719.865906 438.983002,727.589111 
	C439.065735,732.419312 439.000824,737.252136 438.999146,742.083740 
	C438.997040,748.112366 436.264618,752.239502 430.538757,753.656982 
	C427.053162,754.519836 422.794830,755.145935 420.840363,751.058960 
	C419.809387,748.903015 419.336212,744.787048 420.572632,743.601135 
	C422.968201,741.303650 426.660980,740.186279 429.980713,739.068298 
	C434.133820,737.669678 436.084351,734.808899 435.160645,729.555359 
	C428.973541,731.099915 422.606293,732.036377 416.754578,734.303467 
	C407.995209,737.697144 405.027832,746.580200 409.017212,755.049316 
	C412.301056,762.020569 421.741028,765.528809 430.588409,762.607483 
	C433.872375,761.523071 436.795166,759.344971 440.076874,757.559998 
	C442.471985,763.843262 447.722534,761.928589 452.199707,761.716492 
	C451.789368,756.254456 451.223633,751.005371 451.040649,745.743042 
	C450.780518,738.262024 450.801849,730.771240 450.194427,722.585754 
M822.444580,708.855652 
	C820.334229,709.464661 818.223877,710.073669 816.073242,710.694336 
	C817.137329,713.810791 817.920410,716.104309 818.770508,718.594177 
	C822.149719,717.788452 825.275696,717.033508 828.406372,716.298462 
	C835.897339,714.539734 842.820251,719.783936 842.979248,727.428955 
	C843.079712,732.258972 843.000427,737.092773 842.999146,741.924866 
	C842.997559,748.085571 840.435852,752.083130 834.686768,753.611206 
	C831.216003,754.533813 826.974548,755.204529 824.942932,751.171448 
	C823.868408,749.038330 823.298950,744.926392 824.504456,743.735596 
	C826.861389,741.407593 830.525696,740.218994 833.828247,739.078064 
	C838.163208,737.580566 840.026428,734.866882 839.725464,729.401123 
	C832.932983,731.121765 826.457947,732.183472 820.435181,734.448059 
	C814.233154,736.779907 810.283386,743.968933 811.030396,749.369568 
	C811.995728,756.348938 817.267639,761.593445 823.901855,763.054749 
	C831.642700,764.759644 837.944214,762.284302 843.866028,756.971497 
	C846.288879,763.889282 851.626770,761.948853 856.186035,761.771790 
	C855.782227,756.023926 855.231628,750.460693 855.043579,744.885254 
	C854.847107,739.059998 855.025757,733.222961 854.993225,727.391296 
	C854.944214,718.598389 848.702881,708.154297 839.679810,707.927429 
	C834.174194,707.788940 828.654358,708.218994 822.444580,708.855652 
M761.137390,720.507446 
	C761.933044,723.110168 762.728638,725.712952 763.567505,728.457031 
	C755.551147,730.180359 746.130798,725.501709 743.101257,736.990234 
	C752.460449,736.990234 761.432068,737.065735 770.399231,736.898804 
	C771.576172,736.876953 773.499695,735.838257 773.776245,734.890686 
	C776.729126,724.773865 773.005188,713.789001 763.096008,709.039856 
	C748.483582,702.036560 732.694458,710.887939 728.887146,728.330627 
	C724.631653,747.827026 737.119446,768.163086 762.248291,762.775024 
	C765.967163,761.977722 769.513855,760.377258 773.294250,759.096191 
	C772.101501,755.827332 771.227234,753.431274 770.275146,750.821960 
	C767.339844,751.760986 764.720276,752.641541 762.075317,753.437256 
	C753.609680,755.984558 746.342468,753.308533 742.638550,746.150146 
	C738.750122,738.635315 738.743896,730.914978 742.340210,723.357666 
	C746.272644,715.093994 753.792236,713.744324 761.137390,720.507446 
M645.719910,716.878174 
	C646.716309,716.938049 647.874268,716.688904 648.681213,717.110962 
	C652.288757,718.997620 653.847961,717.453308 654.521851,713.983093 
	C654.758301,712.765625 655.170715,711.582397 655.595459,710.048828 
	C647.687561,707.540344 640.031982,705.358276 632.035400,708.933411 
	C627.082275,711.147827 623.617371,714.661560 623.049866,720.253845 
	C622.439697,726.266785 624.056396,731.363831 629.844849,734.407837 
	C634.611389,736.914429 639.589844,739.133118 643.976257,742.193359 
	C645.826416,743.484192 647.462219,746.689087 647.296692,748.880615 
	C647.056763,752.058533 644.603943,754.522095 640.724670,753.982117 
	C636.036011,753.329407 631.377197,752.432983 626.674683,751.928955 
	C625.523132,751.805542 623.771423,752.461060 623.143555,753.354431 
	C622.089844,754.853760 621.716431,756.831299 621.060913,758.596497 
	C628.109863,763.105713 635.624268,763.242981 643.236206,763.013733 
	C650.016235,762.809509 657.043213,757.608704 658.820251,751.338013 
	C660.547852,745.241882 657.904968,738.927551 651.558105,734.928833 
	C647.537781,732.395935 642.966675,730.672607 639.174011,727.867615 
	C636.950195,726.222961 635.769409,723.168152 634.119446,720.747620 
	C636.933594,719.167542 639.709473,717.510742 642.594177,716.071960 
	C643.174927,715.782349 644.168518,716.320435 645.719910,716.878174 
M489.909424,754.082886 
	C488.996429,754.248474 488.011169,754.723206 487.182251,754.529297 
	C481.988953,753.314392 479.340790,750.158752 479.095642,741.012634 
	C478.729858,727.368225 479.000305,713.706787 479.000061,700.052551 
	C479.000000,697.452637 479.000000,694.852722 479.000000,692.243958 
	C469.583832,692.519104 467.587982,694.008484 468.146088,701.822632 
	C468.522400,707.091675 466.649231,709.424255 461.713837,709.967041 
	C460.814667,710.065979 459.944427,710.428345 459.393982,710.578308 
	C459.393982,712.905823 459.393982,714.811829 459.393982,716.786072 
	C462.370972,716.956177 464.969696,717.104614 468.001892,717.277832 
	C468.001892,726.231750 467.730377,734.864563 468.059875,743.474426 
	C468.694305,760.051147 480.334503,767.101929 495.191101,762.091553 
	C497.639557,761.265808 498.568451,760.289001 497.415802,757.812256 
	C496.690247,756.253235 496.154358,754.605896 495.631744,753.252930 
	C493.580475,753.570984 492.138916,753.794434 489.909424,754.082886 
M550.000366,711.500000 
	C550.000366,702.084412 550.000366,692.668823 550.000366,683.324463 
	C545.606812,683.324463 542.018311,683.324463 538.401245,683.324463 
	C538.401245,709.676147 538.401245,735.701538 538.401245,761.675659 
	C542.394348,761.675659 545.982849,761.675659 550.000366,761.675659 
	C550.000366,745.070190 550.000366,728.785095 550.000366,711.500000 
M682.000366,722.500000 
	C682.000366,709.422424 682.000366,696.344788 682.000366,683.321167 
	C677.613403,683.321167 674.025085,683.321167 670.398071,683.321167 
	C670.398071,709.669495 670.398071,735.694885 670.398071,761.678894 
	C674.387817,761.678894 677.976074,761.678894 682.000366,761.678894 
	C682.000366,748.742065 682.000366,736.121033 682.000366,722.500000 
M788.000671,757.314575 
	C788.105774,758.755005 788.210876,760.195435 788.323120,761.733643 
	C792.277893,761.733643 795.863159,761.733643 799.650391,761.733643 
	C799.650391,735.437988 799.650391,709.409668 799.650391,683.271912 
	C795.712036,683.271912 792.125977,683.271912 788.000244,683.271912 
	C788.000244,707.808960 788.000244,732.078186 788.000671,757.314575 
M381.999847,738.578308 
	C382.000092,737.080750 381.983826,735.583069 382.003143,734.085754 
	C382.147156,722.912537 386.367065,718.605103 397.378906,717.851135 
	C398.630585,717.765442 400.392914,716.005554 400.787292,714.684326 
	C401.369904,712.732483 400.937775,710.477844 400.937775,708.690979 
	C391.992523,704.042542 387.247131,710.829712 381.722290,715.263916 
	C378.858459,707.347412 378.517883,707.170227 369.354462,708.454285 
	C372.745880,726.081116 369.918091,743.987793 371.344238,761.697998 
	C375.020020,761.697998 378.272369,761.697998 381.999847,761.697998 
	C381.999847,754.120972 381.999847,746.839478 381.999847,738.578308 
M868.617126,710.124939 
	C869.310608,727.290894 870.004089,744.456787 870.701904,761.729126 
	C873.955688,761.729126 877.207947,761.729126 880.731018,761.729126 
	C880.833130,760.696594 880.977966,759.903137 880.979919,759.109314 
	C880.999939,750.784058 880.945923,742.458374 881.013123,734.133667 
	C881.103577,722.920410 885.393921,718.555481 896.350098,717.851440 
	C897.606506,717.770630 899.388184,716.025757 899.783997,714.709106 
	C900.370789,712.757263 899.935913,710.498291 899.935913,708.698364 
	C890.998413,704.025574 886.258850,710.843872 880.720215,715.241455 
	C877.907715,707.499329 874.027466,705.808716 868.617126,710.124939 
M587.572205,759.020996 
	C581.494446,748.423889 575.416626,737.826843 569.386475,727.312744 
	C575.076782,721.050415 580.567322,715.007935 586.714111,708.243286 
	C578.849976,707.881531 571.998901,706.411621 567.469360,713.898254 
	C565.702759,716.818115 562.873718,719.073547 560.776550,721.820923 
	C558.599426,724.673218 556.206421,727.539062 554.848633,730.791748 
	C553.260193,734.596802 551.348022,738.857300 554.626343,743.176331 
	C557.113159,740.573914 559.239624,738.348633 561.700562,735.773315 
	C565.457153,742.458618 569.053711,748.688965 572.483887,755.009583 
	C576.168884,761.799683 579.976318,763.671570 587.395325,761.865295 
	C587.781799,761.771240 587.856628,760.397034 587.572205,759.020996 
M703.000000,749.484741 
	C703.000000,753.565002 703.000000,757.645264 703.000000,761.688477 
	C707.375183,761.688477 710.958984,761.688477 714.963928,761.688477 
	C714.963928,747.119507 714.976929,732.857910 714.927734,718.596619 
	C714.925110,717.836487 714.389099,717.081299 714.116150,716.318542 
	C709.442322,703.257996 692.391602,705.471008 685.105225,713.134338 
	C687.619629,717.586365 691.881470,717.370117 695.972717,716.857666 
	C700.880554,716.243164 702.944458,717.642395 702.980774,722.549500 
	C703.044800,731.195435 702.999512,739.842224 703.000000,749.484741 
M586.749268,126.294945 
	C589.546753,132.902084 594.326172,136.296387 601.707520,136.043732 
	C608.475586,135.812057 612.684082,132.317291 615.211060,126.366219 
	C617.502808,120.968872 616.008240,114.411842 611.570557,110.076385 
	C607.248108,105.853500 600.454895,104.556442 595.157959,106.942581 
	C587.449524,110.415054 585.404724,114.702927 586.749268,126.294945 
M605.647339,1066.248413 
	C603.830261,1066.165771 602.013977,1066.049194 600.195984,1066.006714 
	C594.052063,1065.862915 589.766479,1069.222656 587.161316,1074.206299 
	C584.080139,1080.100708 585.798279,1087.394165 590.422791,1091.916992 
	C594.643127,1096.044189 601.153503,1097.411987 606.361084,1095.215576 
	C612.125183,1092.784424 615.639526,1088.731079 616.027222,1082.210693 
	C616.475952,1074.664551 613.147095,1069.635254 605.647339,1066.248413 
M511.000061,722.506958 
	C511.000061,735.580994 511.000061,748.655029 511.000061,761.681519 
	C515.386536,761.681519 518.972534,761.681519 522.603699,761.681519 
	C522.603699,743.666687 522.603699,725.973083 522.603699,708.319336 
	C518.616028,708.319336 515.028625,708.319336 511.000061,708.319336 
	C511.000061,712.922424 511.000061,717.216858 511.000061,722.506958 
M512.129150,687.351379 
	C511.671509,687.826843 510.895111,688.252075 510.811066,688.786316 
	C510.436340,691.168030 509.558136,693.783630 510.179840,695.933655 
	C511.054749,698.959290 513.707031,700.264709 517.160522,700.073486 
	C520.442932,699.891724 522.728516,698.417419 523.052185,695.406433 
	C523.319885,692.916443 523.143860,688.954468 521.668701,688.029236 
	C519.351685,686.575867 515.776367,687.128723 512.129150,687.351379 
M497.954315,715.229370 
	C497.954315,712.972595 497.954315,710.715820 497.954315,708.303101 
	C492.381653,708.303101 487.376343,708.303101 482.319214,708.303101 
	C483.745117,716.123718 491.427887,718.758728 497.954315,715.229370 
z"/>
<path fill="#7FFFD6" opacity="1.000000" stroke="none" 
	d="
M1079.266479,743.796265 
	C1081.722168,747.074219 1083.928833,750.091003 1086.232544,753.240540 
	C924.388428,884.715820 762.817322,1015.969360 600.993408,1147.428223 
	C439.118866,1015.916077 277.558258,884.658875 115.661720,753.128784 
	C119.030098,748.872620 122.241814,744.814453 125.613861,740.553650 
	C139.349289,751.748291 152.563309,762.575623 165.841995,773.323059 
	C177.468262,782.733154 189.215698,791.993774 200.821228,801.429199 
	C214.100204,812.225159 227.236496,823.196655 240.519196,833.987976 
	C251.742020,843.105835 263.134735,852.014404 274.361877,861.126892 
	C286.119324,870.669800 297.741821,880.378723 309.473053,889.954102 
	C322.596527,900.665649 335.772552,911.312805 348.931854,921.980347 
	C358.639587,929.849854 368.356445,937.708130 378.070679,945.569580 
	C393.663696,958.188843 409.284851,970.773621 424.843323,983.435303 
	C437.988586,994.133057 451.016937,1004.974609 464.178589,1015.651978 
	C479.370514,1027.976562 494.695984,1040.136353 509.881042,1052.469360 
	C523.165405,1063.258667 536.315674,1074.212891 549.561340,1085.050049 
	C565.857666,1098.383179 582.151978,1111.719971 598.603455,1124.859375 
	C599.634277,1125.682739 602.588501,1125.510376 603.693481,1124.618652 
	C624.049683,1108.191650 644.201050,1091.511353 664.518311,1075.035767 
	C684.692078,1058.676514 705.065552,1042.563599 725.231934,1026.195435 
	C742.352661,1012.299377 759.241333,998.117615 776.346436,984.202087 
	C793.178894,970.508240 810.204590,957.052124 827.052246,943.376831 
	C842.127319,931.140137 857.021973,918.681030 872.093567,906.440063 
	C888.937256,892.759949 905.927246,879.259949 922.784668,865.596680 
	C935.950989,854.925049 948.975525,844.078613 962.130188,833.392395 
	C975.655334,822.405212 989.293701,811.557251 1002.823547,800.575745 
	C1015.854004,789.999512 1028.802490,779.322388 1041.799316,768.704712 
	C1053.124146,759.453064 1064.466064,750.222473 1076.011719,740.810303 
	C1077.098022,741.795166 1078.057739,742.665161 1079.266479,743.796265 
z"/>
<path fill="#7FFFD6" opacity="1.000000" stroke="none" 
	d="
M293.764038,320.736542 
	C283.980682,328.837158 274.479370,336.717133 264.912903,344.517212 
	C254.591293,352.932953 244.219406,361.287170 233.850143,369.644287 
	C218.618225,381.920471 203.346924,394.147888 188.134903,406.448639 
	C177.133362,415.344727 166.197372,424.321960 155.238571,433.270782 
	C145.563965,441.171082 135.898270,449.082245 125.725403,457.400055 
	C122.320518,453.293304 119.028168,449.322266 115.563347,445.143219 
	C277.567993,313.495117 439.123169,182.212280 601.021057,50.650921 
	C762.719055,182.074524 924.270569,313.379150 1086.358765,445.119904 
	C1083.093140,449.145599 1079.836426,453.160156 1076.361694,457.443634 
	C1064.859497,448.132446 1053.771729,439.139771 1042.665039,430.170593 
	C1030.899170,420.669189 1019.072571,411.242401 1007.351257,401.686310 
	C995.614258,392.117554 983.992249,382.407776 972.286621,372.800262 
	C963.130005,365.284912 953.938965,357.811157 944.733276,350.356018 
	C934.641357,342.183075 924.519348,334.047180 914.402466,325.905121 
	C901.085083,315.187317 887.715820,304.533447 874.451355,293.750610 
	C862.700867,284.198547 851.096191,274.467224 839.365417,264.890717 
	C829.941223,257.197235 820.398071,249.649521 810.955811,241.977982 
	C800.867920,233.781921 790.846985,225.503494 780.777283,217.284912 
	C769.687622,208.233841 758.594055,199.187210 747.467896,190.181076 
	C737.631775,182.219116 727.744568,174.320129 717.886719,166.384933 
	C704.312134,155.457947 690.707886,144.567429 677.183350,133.578781 
	C664.029358,122.891228 650.958679,112.101128 637.853699,101.353317 
	C626.657593,92.170990 615.454773,82.996696 604.278564,73.790192 
	C602.042175,71.947998 599.962097,71.947830 597.723938,73.788269 
	C582.854614,86.015701 568.018921,98.284988 553.061951,110.404587 
	C536.588501,123.753059 519.950623,136.898514 503.472290,150.241028 
	C491.703430,159.770248 480.111359,169.517502 468.381042,179.094757 
	C458.956818,186.789200 449.421448,194.347412 439.975372,202.015320 
	C428.225250,211.553497 416.524200,221.152069 404.787292,230.706589 
	C393.181091,240.154709 381.552124,249.574829 369.941620,259.017639 
	C360.114746,267.009888 350.310730,275.030182 340.476776,283.013641 
	C331.028351,290.684113 321.561005,298.331421 312.089325,305.973236 
	C306.077240,310.823853 300.042114,315.645844 293.764038,320.736542 
z"/>
<path fill="#7FFFD6" opacity="1.000000" stroke="none" 
	d="
M478.016235,326.000122 
	C562.677917,326.000122 646.842712,326.106201 731.006592,325.865906 
	C741.524658,325.835876 751.267456,333.849518 751.207520,345.732147 
	C750.807617,425.061432 751.000000,504.393738 751.000000,583.725037 
	C751.000000,585.878296 751.000000,588.031555 751.000000,590.591736 
	C651.018921,590.591736 551.317322,590.591736 451.000031,590.591736 
	C451.000031,588.584717 451.000061,586.641602 451.000061,584.698486 
	C451.000061,504.700531 451.128937,424.702087 450.835480,344.705200 
	C450.799133,334.800659 459.333466,325.709167 469.520142,325.989410 
	C472.184540,326.062714 474.852692,326.000244 478.016235,326.000122 
M739.000000,447.500000 
	C739.000000,423.422791 739.000000,399.345581 739.000000,375.318787 
	C646.606506,375.318787 555.032227,375.318787 463.409485,375.318787 
	C463.409485,443.000305 463.409485,510.362152 463.409485,577.681152 
	C555.393616,577.681152 646.967834,577.681152 739.000000,577.681152 
	C739.000000,534.409180 739.000000,491.454590 739.000000,447.500000 
M472.724426,338.999878 
	C468.024628,338.555328 463.731598,339.358398 463.229187,344.947235 
	C462.730988,350.489075 463.120209,356.110687 463.120209,361.570923 
	C555.435730,361.570923 647.100342,361.570923 738.999878,361.570923 
	C738.999878,357.153503 739.006714,353.162872 738.998535,349.172211 
	C738.980652,340.481232 737.529785,339.000732 729.021484,339.000610 
	C643.906311,338.999420 558.791077,338.999878 472.724426,338.999878 
z"/>
<path fill="#7FFFD6" opacity="1.000000" stroke="none" 
	d="
M308.000061,724.000000 
	C308.000061,711.685364 308.000061,699.870728 308.000061,687.382263 
	C321.590729,684.940735 335.097076,681.972900 347.902802,690.028442 
	C355.974762,695.106140 359.298889,702.871643 357.867584,712.130798 
	C356.525024,720.815674 351.147949,726.832153 342.601715,728.996460 
	C336.416626,730.562683 329.932098,730.946350 322.865814,731.959900 
	C324.423981,724.859680 328.636505,722.419739 333.738342,722.155823 
	C339.734253,721.845581 345.426361,715.180237 345.875793,708.577820 
	C346.264984,702.860840 341.038635,696.374695 334.717834,695.176147 
	C330.169250,694.313599 325.406464,694.580322 320.106812,694.311218 
	C320.106812,717.293823 320.106812,739.337891 320.106812,761.687744 
	C315.959229,761.687744 312.372955,761.687744 308.000061,761.687744 
	C308.000061,749.313354 308.000061,736.906677 308.000061,724.000000 
z"/>
<path fill="#7FFFD6" opacity="1.000000" stroke="none" 
	d="
M450.448669,722.935181 
	C450.801849,730.771240 450.780518,738.262024 451.040649,745.743042 
	C451.223633,751.005371 451.789368,756.254456 452.199707,761.716492 
	C447.722534,761.928589 442.471985,763.843262 440.076874,757.559998 
	C436.795166,759.344971 433.872375,761.523071 430.588409,762.607483 
	C421.741028,765.528809 412.301056,762.020569 409.017212,755.049316 
	C405.027832,746.580200 407.995209,737.697144 416.754578,734.303467 
	C422.606293,732.036377 428.973541,731.099915 435.160645,729.555359 
	C436.084351,734.808899 434.133820,737.669678 429.980713,739.068298 
	C426.660980,740.186279 422.968201,741.303650 420.572632,743.601135 
	C419.336212,744.787048 419.809387,748.903015 420.840363,751.058960 
	C422.794830,755.145935 427.053162,754.519836 430.538757,753.656982 
	C436.264618,752.239502 438.997040,748.112366 438.999146,742.083740 
	C439.000824,737.252136 439.065735,732.419312 438.983002,727.589111 
	C438.850739,719.865906 432.034271,714.526672 424.555023,716.235840 
	C421.411804,716.954102 418.286224,717.749634 414.774902,718.601746 
	C413.936981,716.102478 413.133179,713.704956 412.338470,711.334534 
	C426.358612,703.987549 446.769379,704.706360 450.448669,722.935181 
z"/>
<path fill="#7FFFD6" opacity="1.000000" stroke="none" 
	d="
M822.792725,708.624634 
	C828.654358,708.218994 834.174194,707.788940 839.679810,707.927429 
	C848.702881,708.154297 854.944214,718.598389 854.993225,727.391296 
	C855.025757,733.222961 854.847107,739.059998 855.043579,744.885254 
	C855.231628,750.460693 855.782227,756.023926 856.186035,761.771790 
	C851.626770,761.948853 846.288879,763.889282 843.866028,756.971497 
	C837.944214,762.284302 831.642700,764.759644 823.901855,763.054749 
	C817.267639,761.593445 811.995728,756.348938 811.030396,749.369568 
	C810.283386,743.968933 814.233154,736.779907 820.435181,734.448059 
	C826.457947,732.183472 832.932983,731.121765 839.725464,729.401123 
	C840.026428,734.866882 838.163208,737.580566 833.828247,739.078064 
	C830.525696,740.218994 826.861389,741.407593 824.504456,743.735596 
	C823.298950,744.926392 823.868408,749.038330 824.942932,751.171448 
	C826.974548,755.204529 831.216003,754.533813 834.686768,753.611206 
	C840.435852,752.083130 842.997559,748.085571 842.999146,741.924866 
	C843.000427,737.092773 843.079712,732.258972 842.979248,727.428955 
	C842.820251,719.783936 835.897339,714.539734 828.406372,716.298462 
	C825.275696,717.033508 822.149719,717.788452 818.770508,718.594177 
	C817.920410,716.104309 817.137329,713.810791 816.073242,710.694336 
	C818.223877,710.073669 820.334229,709.464661 822.792725,708.624634 
z"/>
<path fill="#7FFFD6" opacity="1.000000" stroke="none" 
	d="
M761.028198,720.125122 
	C753.792236,713.744324 746.272644,715.093994 742.340210,723.357666 
	C738.743896,730.914978 738.750122,738.635315 742.638550,746.150146 
	C746.342468,753.308533 753.609680,755.984558 762.075317,753.437256 
	C764.720276,752.641541 767.339844,751.760986 770.275146,750.821960 
	C771.227234,753.431274 772.101501,755.827332 773.294250,759.096191 
	C769.513855,760.377258 765.967163,761.977722 762.248291,762.775024 
	C737.119446,768.163086 724.631653,747.827026 728.887146,728.330627 
	C732.694458,710.887939 748.483582,702.036560 763.096008,709.039856 
	C773.005188,713.789001 776.729126,724.773865 773.776245,734.890686 
	C773.499695,735.838257 771.576172,736.876953 770.399231,736.898804 
	C761.432068,737.065735 752.460449,736.990234 743.101257,736.990234 
	C746.130798,725.501709 755.551147,730.180359 763.567505,728.457031 
	C762.728638,725.712952 761.933044,723.110168 761.028198,720.125122 
z"/>
<path fill="#7FFFD6" opacity="1.000000" stroke="none" 
	d="
M645.345825,716.677490 
	C644.168518,716.320435 643.174927,715.782349 642.594177,716.071960 
	C639.709473,717.510742 636.933594,719.167542 634.119446,720.747620 
	C635.769409,723.168152 636.950195,726.222961 639.174011,727.867615 
	C642.966675,730.672607 647.537781,732.395935 651.558105,734.928833 
	C657.904968,738.927551 660.547852,745.241882 658.820251,751.338013 
	C657.043213,757.608704 650.016235,762.809509 643.236206,763.013733 
	C635.624268,763.242981 628.109863,763.105713 621.060913,758.596497 
	C621.716431,756.831299 622.089844,754.853760 623.143555,753.354431 
	C623.771423,752.461060 625.523132,751.805542 626.674683,751.928955 
	C631.377197,752.432983 636.036011,753.329407 640.724670,753.982117 
	C644.603943,754.522095 647.056763,752.058533 647.296692,748.880615 
	C647.462219,746.689087 645.826416,743.484192 643.976257,742.193359 
	C639.589844,739.133118 634.611389,736.914429 629.844849,734.407837 
	C624.056396,731.363831 622.439697,726.266785 623.049866,720.253845 
	C623.617371,714.661560 627.082275,711.147827 632.035400,708.933411 
	C640.031982,705.358276 647.687561,707.540344 655.595459,710.048828 
	C655.170715,711.582397 654.758301,712.765625 654.521851,713.983093 
	C653.847961,717.453308 652.288757,718.997620 648.681213,717.110962 
	C647.874268,716.688904 646.716309,716.938049 645.345825,716.677490 
z"/>
<path fill="#7FFFD6" opacity="1.000000" stroke="none" 
	d="
M490.303406,754.050415 
	C492.138916,753.794434 493.580475,753.570984 495.631744,753.252930 
	C496.154358,754.605896 496.690247,756.253235 497.415802,757.812256 
	C498.568451,760.289001 497.639557,761.265808 495.191101,762.091553 
	C480.334503,767.101929 468.694305,760.051147 468.059875,743.474426 
	C467.730377,734.864563 468.001892,726.231750 468.001892,717.277832 
	C464.969696,717.104614 462.370972,716.956177 459.393982,716.786072 
	C459.393982,714.811829 459.393982,712.905823 459.393982,710.578308 
	C459.944427,710.428345 460.814667,710.065979 461.713837,709.967041 
	C466.649231,709.424255 468.522400,707.091675 468.146088,701.822632 
	C467.587982,694.008484 469.583832,692.519104 479.000000,692.243958 
	C479.000000,694.852722 479.000000,697.452637 479.000061,700.052551 
	C479.000305,713.706787 478.729858,727.368225 479.095642,741.012634 
	C479.340790,750.158752 481.988953,753.314392 487.182251,754.529297 
	C488.011169,754.723206 488.996429,754.248474 490.303406,754.050415 
z"/>
<path fill="#7FFFD6" opacity="1.000000" stroke="none" 
	d="
M550.000366,712.000000 
	C550.000366,728.785095 550.000366,745.070190 550.000366,761.675659 
	C545.982849,761.675659 542.394348,761.675659 538.401245,761.675659 
	C538.401245,735.701538 538.401245,709.676147 538.401245,683.324463 
	C542.018311,683.324463 545.606812,683.324463 550.000366,683.324463 
	C550.000366,692.668823 550.000366,702.084412 550.000366,712.000000 
z"/>
<path fill="#7FFFD6" opacity="1.000000" stroke="none" 
	d="
M682.000366,723.000000 
	C682.000366,736.121033 682.000366,748.742065 682.000366,761.678894 
	C677.976074,761.678894 674.387817,761.678894 670.398071,761.678894 
	C670.398071,735.694885 670.398071,709.669495 670.398071,683.321167 
	C674.025085,683.321167 677.613403,683.321167 682.000366,683.321167 
	C682.000366,696.344788 682.000366,709.422424 682.000366,723.000000 
z"/>
<path fill="#7FFFD6" opacity="1.000000" stroke="none" 
	d="
M788.000488,756.830994 
	C788.000244,732.078186 788.000244,707.808960 788.000244,683.271912 
	C792.125977,683.271912 795.712036,683.271912 799.650391,683.271912 
	C799.650391,709.409668 799.650391,735.437988 799.650391,761.733643 
	C795.863159,761.733643 792.277893,761.733643 788.323120,761.733643 
	C788.210876,760.195435 788.105774,758.755005 788.000488,756.830994 
z"/>
<path fill="#7FFFD6" opacity="1.000000" stroke="none" 
	d="
M381.999847,739.068115 
	C381.999847,746.839478 381.999847,754.120972 381.999847,761.697998 
	C378.272369,761.697998 375.020020,761.697998 371.344238,761.697998 
	C369.918091,743.987793 372.745880,726.081116 369.354462,708.454285 
	C378.517883,707.170227 378.858459,707.347412 381.722290,715.263916 
	C387.247131,710.829712 391.992523,704.042542 400.937775,708.690979 
	C400.937775,710.477844 401.369904,712.732483 400.787292,714.684326 
	C400.392914,716.005554 398.630585,717.765442 397.378906,717.851135 
	C386.367065,718.605103 382.147156,722.912537 382.003143,734.085754 
	C381.983826,735.583069 382.000092,737.080750 381.999847,739.068115 
z"/>
<path fill="#7FFFD6" opacity="1.000000" stroke="none" 
	d="
M868.409424,709.744507 
	C874.027466,705.808716 877.907715,707.499329 880.720215,715.241455 
	C886.258850,710.843872 890.998413,704.025574 899.935913,708.698364 
	C899.935913,710.498291 900.370789,712.757263 899.783997,714.709106 
	C899.388184,716.025757 897.606506,717.770630 896.350098,717.851440 
	C885.393921,718.555481 881.103577,722.920410 881.013123,734.133667 
	C880.945923,742.458374 880.999939,750.784058 880.979919,759.109314 
	C880.977966,759.903137 880.833130,760.696594 880.731018,761.729126 
	C877.207947,761.729126 873.955688,761.729126 870.701904,761.729126 
	C870.004089,744.456787 869.310608,727.290894 868.409424,709.744507 
z"/>
<path fill="#7FFFD6" opacity="1.000000" stroke="none" 
	d="
M587.824341,759.319885 
	C587.856628,760.397034 587.781799,761.771240 587.395325,761.865295 
	C579.976318,763.671570 576.168884,761.799683 572.483887,755.009583 
	C569.053711,748.688965 565.457153,742.458618 561.700562,735.773315 
	C559.239624,738.348633 557.113159,740.573914 554.626343,743.176331 
	C551.348022,738.857300 553.260193,734.596802 554.848633,730.791748 
	C556.206421,727.539062 558.599426,724.673218 560.776550,721.820923 
	C562.873718,719.073547 565.702759,716.818115 567.469360,713.898254 
	C571.998901,706.411621 578.849976,707.881531 586.714111,708.243286 
	C580.567322,715.007935 575.076782,721.050415 569.386475,727.312744 
	C575.416626,737.826843 581.494446,748.423889 587.824341,759.319885 
z"/>
<path fill="#7FFFD6" opacity="1.000000" stroke="none" 
	d="
M703.000000,748.986694 
	C702.999512,739.842224 703.044800,731.195435 702.980774,722.549500 
	C702.944458,717.642395 700.880554,716.243164 695.972717,716.857666 
	C691.881470,717.370117 687.619629,717.586365 685.105225,713.134338 
	C692.391602,705.471008 709.442322,703.257996 714.116150,716.318542 
	C714.389099,717.081299 714.925110,717.836487 714.927734,718.596619 
	C714.976929,732.857910 714.963928,747.119507 714.963928,761.688477 
	C710.958984,761.688477 707.375183,761.688477 703.000000,761.688477 
	C703.000000,757.645264 703.000000,753.565002 703.000000,748.986694 
z"/>
<path fill="#7FFFD6" opacity="1.000000" stroke="none" 
	d="
M586.495972,125.966347 
	C585.404724,114.702927 587.449524,110.415054 595.157959,106.942581 
	C600.454895,104.556442 607.248108,105.853500 611.570557,110.076385 
	C616.008240,114.411842 617.502808,120.968872 615.211060,126.366219 
	C612.684082,132.317291 608.475586,135.812057 601.707520,136.043732 
	C594.326172,136.296387 589.546753,132.902084 586.495972,125.966347 
z"/>
<path fill="#7FFFD6" opacity="1.000000" stroke="none" 
	d="
M605.972656,1066.500244 
	C613.147095,1069.635254 616.475952,1074.664551 616.027222,1082.210693 
	C615.639526,1088.731079 612.125183,1092.784424 606.361084,1095.215576 
	C601.153503,1097.411987 594.643127,1096.044189 590.422791,1091.916992 
	C585.798279,1087.394165 584.080139,1080.100708 587.161316,1074.206299 
	C589.766479,1069.222656 594.052063,1065.862915 600.195984,1066.006714 
	C602.013977,1066.049194 603.830261,1066.165771 605.972656,1066.500244 
z"/>
<path fill="#7FFFD6" opacity="1.000000" stroke="none" 
	d="
M511.000061,722.009155 
	C511.000061,717.216858 511.000061,712.922424 511.000061,708.319336 
	C515.028625,708.319336 518.616028,708.319336 522.603699,708.319336 
	C522.603699,725.973083 522.603699,743.666687 522.603699,761.681519 
	C518.972534,761.681519 515.386536,761.681519 511.000061,761.681519 
	C511.000061,748.655029 511.000061,735.580994 511.000061,722.009155 
z"/>
<path fill="#7FFFD6" opacity="1.000000" stroke="none" 
	d="
M512.431519,687.091675 
	C515.776367,687.128723 519.351685,686.575867 521.668701,688.029236 
	C523.143860,688.954468 523.319885,692.916443 523.052185,695.406433 
	C522.728516,698.417419 520.442932,699.891724 517.160522,700.073486 
	C513.707031,700.264709 511.054749,698.959290 510.179840,695.933655 
	C509.558136,693.783630 510.436340,691.168030 510.811066,688.786316 
	C510.895111,688.252075 511.671509,687.826843 512.431519,687.091675 
z"/>
<path fill="#7FFFD6" opacity="1.000000" stroke="none" 
	d="
M497.877655,715.676392 
	C491.427887,718.758728 483.745117,716.123718 482.319214,708.303101 
	C487.376343,708.303101 492.381653,708.303101 497.954315,708.303101 
	C497.954315,710.715820 497.954315,712.972595 497.877655,715.676392 
z"/>
<path fill="#47704C" opacity="1.000000" stroke="none" 
	d="
M739.000000,448.000000 
	C739.000000,491.454590 739.000000,534.409180 739.000000,577.681152 
	C646.967834,577.681152 555.393616,577.681152 463.409485,577.681152 
	C463.409485,510.362152 463.409485,443.000305 463.409485,375.318787 
	C555.032227,375.318787 646.606506,375.318787 739.000000,375.318787 
	C739.000000,399.345581 739.000000,423.422791 739.000000,448.000000 
M577.897705,502.414581 
	C575.708679,507.712067 573.495911,512.999939 571.337280,518.309814 
	C569.241211,523.465881 566.916138,528.554199 565.236267,533.845154 
	C564.125793,537.342651 564.846191,540.907288 568.637878,542.744324 
	C571.493835,544.128052 575.733887,541.777039 577.408325,538.114990 
	C578.567627,535.579590 579.728760,533.041870 580.778564,530.460205 
	C590.958191,505.426392 601.114258,480.383026 611.277283,455.342468 
	C617.683044,439.559570 624.152161,423.801941 630.455750,407.978333 
	C632.297058,403.356079 630.789551,399.146484 627.105774,398.169678 
	C622.865051,397.045227 620.081299,399.187836 618.523376,402.993408 
	C610.642822,422.243561 602.834045,441.523163 594.954895,460.773926 
	C589.370239,474.418854 583.713745,488.034332 577.897705,502.414581 
M549.311890,446.911041 
	C550.061890,446.257416 550.778748,445.560486 551.567688,444.957825 
	C554.678894,442.581207 554.809937,439.549042 552.775330,436.677643 
	C550.604248,433.613617 547.149109,432.926880 543.970032,434.695404 
	C530.220947,442.343994 516.578552,450.185852 502.946594,458.042938 
	C497.338776,461.275177 496.912384,467.460785 502.340363,470.603119 
	C516.103333,478.570740 530.030151,486.258179 543.980408,493.895203 
	C545.363647,494.652435 547.785767,494.996185 548.969177,494.280640 
	C550.674683,493.249329 552.316772,491.250183 552.858032,489.343842 
	C553.848572,485.855011 551.756287,483.591980 548.678711,481.875061 
	C538.599670,476.252289 528.617981,470.455109 518.198975,464.496277 
	C528.680603,458.495880 538.635437,452.796997 549.311890,446.911041 
M697.978882,457.482025 
	C694.124207,455.295258 690.276978,453.095093 686.413330,450.924347 
	C676.965332,445.616150 667.519226,440.304779 658.051392,435.032166 
	C655.348816,433.527100 652.851074,433.350891 650.487183,435.970764 
	C646.749756,440.112915 647.805847,443.974548 653.635437,447.269806 
	C663.591858,452.897766 673.502197,458.607147 683.821106,464.504791 
	C673.397339,470.460571 663.429321,476.166504 653.450073,481.852722 
	C649.387878,484.167419 647.604431,488.389130 649.326843,491.728088 
	C650.846680,494.674561 655.218872,495.512329 659.270203,493.274475 
	C672.630737,485.894409 685.964783,478.463959 699.219055,470.895416 
	C705.152588,467.507233 704.795776,462.130981 697.978882,457.482025 
z"/>
<path fill="#47704C" opacity="1.000000" stroke="none" 
	d="
M473.200165,338.999878 
	C558.791077,338.999878 643.906311,338.999420 729.021484,339.000610 
	C737.529785,339.000732 738.980652,340.481232 738.998535,349.172211 
	C739.006714,353.162872 738.999878,357.153503 738.999878,361.570923 
	C647.100342,361.570923 555.435730,361.570923 463.120209,361.570923 
	C463.120209,356.110687 462.730988,350.489075 463.229187,344.947235 
	C463.731598,339.358398 468.024628,338.555328 473.200165,338.999878 
z"/>
<path fill="#7FFFD6" opacity="1.000000" stroke="none" 
	d="
M577.993530,502.038757 
	C583.713745,488.034332 589.370239,474.418854 594.954895,460.773926 
	C602.834045,441.523163 610.642822,422.243561 618.523376,402.993408 
	C620.081299,399.187836 622.865051,397.045227 627.105774,398.169678 
	C630.789551,399.146484 632.297058,403.356079 630.455750,407.978333 
	C624.152161,423.801941 617.683044,439.559570 611.277283,455.342468 
	C601.114258,480.383026 590.958191,505.426392 580.778564,530.460205 
	C579.728760,533.041870 578.567627,535.579590 577.408325,538.114990 
	C575.733887,541.777039 571.493835,544.128052 568.637878,542.744324 
	C564.846191,540.907288 564.125793,537.342651 565.236267,533.845154 
	C566.916138,528.554199 569.241211,523.465881 571.337280,518.309814 
	C573.495911,512.999939 575.708679,507.712067 577.993530,502.038757 
z"/>
<path fill="#7FFFD6" opacity="1.000000" stroke="none" 
	d="
M548.951050,447.004578 
	C538.635437,452.796997 528.680603,458.495880 518.198975,464.496277 
	C528.617981,470.455109 538.599670,476.252289 548.678711,481.875061 
	C551.756287,483.591980 553.848572,485.855011 552.858032,489.343842 
	C552.316772,491.250183 550.674683,493.249329 548.969177,494.280640 
	C547.785767,494.996185 545.363647,494.652435 543.980408,493.895203 
	C530.030151,486.258179 516.103333,478.570740 502.340363,470.603119 
	C496.912384,467.460785 497.338776,461.275177 502.946594,458.042938 
	C516.578552,450.185852 530.220947,442.343994 543.970032,434.695404 
	C547.149109,432.926880 550.604248,433.613617 552.775330,436.677643 
	C554.809937,439.549042 554.678894,442.581207 551.567688,444.957825 
	C550.778748,445.560486 550.061890,446.257416 548.951050,447.004578 
z"/>
<path fill="#7FFFD6" opacity="1.000000" stroke="none" 
	d="
M698.283813,457.691589 
	C704.795776,462.130981 705.152588,467.507233 699.219055,470.895416 
	C685.964783,478.463959 672.630737,485.894409 659.270203,493.274475 
	C655.218872,495.512329 650.846680,494.674561 649.326843,491.728088 
	C647.604431,488.389130 649.387878,484.167419 653.450073,481.852722 
	C663.429321,476.166504 673.397339,470.460571 683.821106,464.504791 
	C673.502197,458.607147 663.591858,452.897766 653.635437,447.269806 
	C647.805847,443.974548 646.749756,440.112915 650.487183,435.970764 
	C652.851074,433.350891 655.348816,433.527100 658.051392,435.032166 
	C667.519226,440.304779 676.965332,445.616150 686.413330,450.924347 
	C690.276978,453.095093 694.124207,455.295258 698.283813,457.691589 
z"/>
</svg>